<?xml version="1.0" standalone="no"?>
<!DOCTYPE svg PUBLIC "-//W3C//DTD SVG 20010904//EN"
 "http://www.w3.org/TR/2001/REC-SVG-20010904/DTD/svg10.dtd">
<svg version="1.0" xmlns="http://www.w3.org/2000/svg"
 width="512.000000pt" height="512.000000pt" viewBox="0 0 512.000000 512.000000"
 preserveAspectRatio="xMidYMid meet">
<metadata>
Created by potrace 1.14, written by Peter Selinger 2001-2017
</metadata>
<g transform="translate(0.000000,512.000000) scale(0.100000,-0.100000)"
fill="#000000" stroke="none">
<path d="M388 5099 c-23 -12 -46 -35 -58 -59 -20 -39 -20 -54 -20 -2482 1
-2284 2 -2445 18 -2475 9 -17 30 -42 47 -55 l30 -23 2155 0 2155 0 32 24 c68
51 63 -154 63 2537 l0 2436 -22 39 c-12 22 -33 47 -47 57 -25 16 -151 17
-2171 19 -2120 2 -2145 2 -2182 -18z m4122 -429 l0 -150 -1950 0 -1950 0 0
150 0 150 1950 0 1950 0 0 -150z m-2100 -617 l0 -168 -53 -24 c-62 -30 -163
-129 -194 -191 -75 -152 -67 -316 22 -455 40 -63 109 -125 175 -156 l50 -24 0
-175 0 -175 -52 -25 c-69 -32 -166 -130 -201 -203 -107 -221 -11 -501 204
-598 l49 -23 0 -175 0 -176 -52 -25 c-29 -13 -80 -52 -114 -85 -142 -141 -173
-336 -83 -522 33 -66 132 -164 197 -193 l52 -24 0 -168 0 -168 -900 0 -900 0
0 1960 0 1960 900 0 900 0 0 -167z m2100 -1793 l0 -1960 -900 0 -900 0 0 168
0 167 50 23 c64 31 129 89 173 154 116 175 98 392 -45 552 -49 55 -69 70 -140
101 l-38 17 0 177 0 176 53 25 c65 31 165 130 196 195 89 187 58 376 -84 521
-36 36 -81 70 -112 84 l-53 24 0 175 0 176 49 23 c153 70 262 259 248 430 -13
164 -111 312 -248 374 l-49 23 0 167 0 168 900 0 900 0 0 -1960z m-1892 1335
c135 -54 109 -259 -36 -281 -120 -18 -209 106 -153 214 37 72 111 98 189 67z
m11 -1206 c77 -44 102 -124 60 -199 -63 -111 -215 -104 -264 13 -27 65 -15
121 38 167 51 44 110 51 166 19z m0 -1200 c48 -27 73 -63 78 -113 10 -85 -62
-166 -147 -166 -52 0 -109 36 -131 83 -24 53 -24 88 0 135 39 75 127 102 200
61z"/>
<path d="M1291 3891 c-18 -10 -44 -35 -57 -57 -23 -37 -24 -47 -24 -222 0
-213 7 -237 75 -277 51 -30 93 -32 145 -5 70 36 80 70 80 280 0 209 -8 239
-78 278 -48 26 -95 28 -141 3z"/>
<path d="M1314 3003 c-27 -5 -76 -51 -91 -86 -9 -19 -13 -84 -13 -205 0 -213
10 -246 82 -281 53 -25 88 -27 131 -5 39 21 50 32 71 73 15 28 17 60 14 224
-3 184 -4 194 -26 222 -42 53 -97 72 -168 58z"/>
<path d="M1286 2086 c-68 -41 -75 -66 -76 -268 0 -212 8 -245 75 -283 49 -29
93 -32 138 -9 79 41 87 68 87 285 0 169 -1 184 -22 221 -42 74 -130 98 -202
54z"/>
<path d="M1293 1191 c-72 -33 -83 -68 -83 -269 0 -93 3 -183 6 -200 10 -48 66
-100 117 -107 55 -9 116 15 148 58 23 31 24 40 27 212 4 192 -3 238 -41 278
-23 25 -76 47 -111 47 -12 0 -40 -9 -63 -19z"/>
<path d="M3692 3889 c-29 -15 -49 -34 -63 -61 -19 -36 -20 -55 -17 -231 3
-184 4 -193 27 -223 33 -45 89 -68 143 -60 47 7 74 25 106 71 19 28 20 46 22
217 1 216 -7 246 -78 286 -50 28 -85 28 -140 1z"/>
<path d="M3693 2992 c-17 -9 -42 -30 -55 -47 -22 -28 -23 -38 -26 -219 -3
-160 -1 -196 13 -227 53 -116 210 -116 269 -1 15 29 17 60 14 225 -3 184 -4
194 -26 222 -31 39 -78 64 -122 64 -19 0 -49 -8 -67 -17z"/>
<path d="M3692 2093 c-18 -9 -44 -35 -57 -58 -24 -40 -25 -49 -25 -223 0 -189
4 -211 42 -252 72 -78 197 -60 239 35 17 39 20 66 19 226 -2 176 -3 183 -27
220 -41 62 -124 85 -191 52z"/>
<path d="M3714 1202 c-32 -10 -78 -53 -92 -85 -8 -19 -12 -89 -12 -210 0 -167
2 -185 21 -217 29 -48 57 -68 106 -76 59 -9 122 23 152 76 22 39 22 48 19 233
-3 184 -4 194 -26 222 -43 54 -106 75 -168 57z"/>
</g>
</svg>
